PathFileType	4	(X/Y/Z)	TVC_16_BWA3_walk_RCNL2025.trc
DataRate	CameraRate	NumFrames	NumMarkers	Units	OrigDataRate	OrigDataStartFrame	OrigNumFrames
100	100	6	27	mm	100	308	615
Frame#	Time	R_Shoulder			L_Shoulder			C7			J_Notch			R_Elbow			L_Elbow			R_Wrist			L_Wrist			R_Asis			L_Asis			R_Psis			L_Psis			Sacral			Thoracic			Sternum			R_Thigh_Lateral			R_Knee_Lateral			R_Shank_Lateral			R_Ankle_Lateral			R_Heel			R_Toe			L_Thigh_Lateral			L_Knee_Lateral			L_Shank_Lateral			L_Ankle_Lateral			L_Heel			L_Toe		
		X1	Y1	Z1	X2	Y2	Z2	X3	Y3	Z3	X4	Y4	Z4	X5	Y5	Z5	X6	Y6	Z6	X7	Y7	Z7	X8	Y8	Z8	X9	Y9	Z9	X10	Y10	Z10	X11	Y11	Z11	X12	Y12	Z12	X13	Y13	Z13	X14	Y14	Z14	X15	Y15	Z15	X16	Y16	Z16	X17	Y17	Z17	X18	Y18	Z18	X19	Y19	Z19	X20	Y20	Z20	X21	Y21	Z21	X22	Y22	Z22	X23	Y23	Z23	X24	Y24	Z24	X25	Y25	Z25	X26	Y26	Z26	X27	Y27	Z27
308	3.07000000	353.498291	1308.134888	61.090935	331.220428	1312.866333	-261.320709	286.530518	1364.361206	-86.393990	417.335114	1229.067139	-96.015305	294.799835	1006.613647	158.024597	360.984222	992.498230	-334.281891	396.520569	797.681488	163.414368	468.633469	815.575531	-263.049088	383.356659	876.750610	8.002292	331.870270	900.992188	-249.197296	195.417984	915.718628	-37.177536	177.737061	917.147766	-142.810089	186.577522	916.433197	-89.993813	206.152405	1101.088745	-90.980934	441.311310	1040.731934	-121.077629	334.199036	594.755737	92.857582	352.629578	423.664398	-6.577292	319.112061	266.004364	41.634941	264.117950	56.669037	-42.655262	213.742310	50.940952	-91.414413	384.787140	40.592682	-85.951576	362.134949	619.379211	-340.039001	417.768402	442.600281	-261.882629	335.470825	312.420715	-331.296143	255.679092	97.966942	-268.037231	218.109222	99.908485	-215.695557	380.251160	40.833439	-256.029816
309	3.08000000	355.508240	1308.081787	61.050850	334.169373	1312.472900	-261.380188	288.985443	1364.141479	-86.621948	419.893616	1228.921021	-95.726685	297.941162	1006.497864	158.429138	364.304871	992.054626	-333.875610	400.280975	797.807068	162.899406	471.427658	814.786346	-262.665314	385.856567	876.492737	8.369788	335.340912	900.809570	-249.040909	198.218903	915.288574	-37.370918	180.865616	916.695496	-143.055573	189.542259	915.992035	-90.213245	208.877197	1100.726440	-91.250732	444.115662	1040.566406	-120.496468	337.060760	594.443970	92.927193	354.515228	423.303680	-6.525008	320.414429	265.682526	41.548336	264.210632	56.676949	-42.693245	213.805542	51.054020	-91.421883	384.827209	40.554764	-85.958176	368.901123	620.251099	-339.824524	424.280548	443.297516	-261.294525	344.258942	311.913605	-331.024170	266.997528	96.548004	-267.724762	228.819244	98.220810	-215.720551	392.006592	41.058743	-254.097122
310	3.09000000	357.549469	1307.982910	60.985188	337.116913	1312.063599	-261.462677	291.467712	1363.898560	-86.861542	422.470795	1228.745972	-95.478073	301.186829	1006.319702	158.790207	367.541321	991.577271	-333.488525	404.052200	797.828278	162.344414	474.073120	813.918610	-262.317406	388.375946	876.235168	8.738452	338.835632	900.586609	-248.910767	201.024155	914.835571	-37.613693	184.014648	916.208435	-143.347336	192.519402	915.522003	-90.480515	211.619324	1100.342896	-91.561653	446.920654	1040.370483	-119.986237	339.981262	594.116577	92.985710	356.414551	422.934021	-6.482592	321.706329	265.354675	41.466026	264.302032	56.682957	-42.732109	213.868546	51.167564	-91.426834	384.877808	40.515533	-85.971786	375.851318	621.187195	-339.679169	430.676117	443.948822	-260.844543	352.675110	311.473083	-330.807678	278.241119	95.177788	-267.393524	239.466782	96.582718	-215.744934	403.615417	41.290436	-252.089203
311	3.10000000	359.621216	1307.839844	60.894035	340.064819	1311.639404	-261.570251	293.977661	1363.632568	-87.114319	425.068695	1228.544189	-95.270615	304.535187	1006.080261	159.103668	370.692261	991.068604	-333.128906	407.842590	797.750153	161.751289	476.572830	812.981689	-262.005157	390.909454	875.973877	9.107592	342.362915	900.324585	-248.804947	203.838165	914.361267	-37.908775	187.190964	915.688965	-143.688950	195.514565	915.025116	-90.798862	214.382339	1099.937988	-91.915298	449.731354	1040.148193	-119.546906	342.904907	593.773682	93.033745	358.322876	422.555298	-6.449281	322.982361	265.025146	41.389488	264.391663	56.688011	-42.772690	213.934219	51.280972	-91.432213	384.938904	40.475735	-85.992111	382.864044	622.140991	-339.602142	436.941193	444.548431	-260.517426	360.769775	311.071594	-330.647064	289.448700	93.822426	-267.065277	250.091507	94.948029	-215.791458	415.142731	41.528786	-250.041031
312	3.11000000	361.723297	1307.655029	60.777084	343.015778	1311.201050	-261.705200	296.515839	1363.343628	-87.382294	427.689697	1228.318115	-95.105400	307.983398	1005.781799	159.365814	373.757782	990.531494	-332.805145	411.660812	797.579926	161.121658	478.931030	811.985382	-261.728394	393.450317	875.703857	9.474515	345.930176	900.025208	-248.722046	206.665787	913.867615	-38.258293	190.400955	915.140137	-144.083298	198.533371	914.503876	-91.170795	217.169983	1099.511841	-92.313057	452.553345	1039.903564	-119.177711	345.777832	593.415283	93.071625	360.236694	422.167358	-6.424641	324.239899	264.697906	41.318630	264.479065	56.693195	-42.815643	214.004822	51.394207	-91.440758	385.009338	40.436005	-86.017982	389.807068	623.062256	-339.595245	443.067413	445.091858	-260.295319	368.617523	310.679840	-330.540680	300.655792	92.456352	-266.759735	260.731598	93.280083	-215.878555	426.646393	41.779171	-247.988922
313	3.12000000	363.856018	1307.431152	60.633617	345.973175	1310.749878	-261.869904	299.083191	1363.032104	-87.667877	430.336517	1228.070435	-94.983414	311.527679	1005.427734	159.573349	376.739227	989.968994	-332.525452	415.515808	797.326660	160.456863	481.153549	810.939545	-261.487236	395.990906	875.419861	9.834826	349.543549	899.690552	-248.661148	209.512024	913.357117	-38.663609	193.650513	914.565735	-144.532440	201.581268	913.961426	-91.598024	219.986084	1099.065063	-92.756111	455.392639	1039.640503	-118.877274	348.554230	593.041199	93.099106	362.153931	421.770203	-6.408589	325.478760	264.376373	41.252159	264.563904	56.699612	-42.861351	214.081863	51.508003	-91.454781	385.087067	40.396889	-86.047470	396.548615	623.900452	-339.661926	449.051758	445.576385	-260.158691	376.309082	310.269714	-330.485138	311.892670	91.062828	-266.494141	271.421204	91.552673	-216.020599	438.173981	42.050220	-245.968719
